<svg xmlns="http://www.w3.org/2000/svg" viewBox="0 0 960 540" role="img" aria-label="StawiHR dashboard">
  <rect width="960" height="540" fill="#f4f6f8"/>
  <rect x="0" y="0" width="200" height="540" fill="#2f323e"/>
  <rect x="0" y="0" width="200" height="48" fill="#252830"/>
  <text x="20" y="30" font-family="Segoe UI, sans-serif" font-size="12" fill="#fff">Navigation</text>
  <rect x="10" y="60" width="180" height="24" rx="3" fill="#018ef5" opacity="0.3"/>
  <text x="20" y="76" font-family="Segoe UI, sans-serif" font-size="11" fill="#fff">Dashboard</text>
  <text x="20" y="110" font-family="Segoe UI, sans-serif" font-size="11" fill="#aaa">Self Service</text>
  <text x="20" y="140" font-family="Segoe UI, sans-serif" font-size="11" fill="#aaa">Employee Management</text>
  <text x="20" y="170" font-family="Segoe UI, sans-serif" font-size="11" fill="#aaa">Payroll</text>
  <rect x="220" y="16" width="720" height="48" fill="#fff" stroke="#e3e8ee"/>
  <text x="240" y="46" font-family="Segoe UI, sans-serif" font-size="16" fill="#1a1f36" font-weight="600">Dashboard</text>
  <rect x="240" y="80" width="160" height="90" rx="6" fill="#fff" stroke="#e3e8ee"/>
  <text x="260" y="110" font-family="Segoe UI, sans-serif" font-size="11" fill="#697386">Active Employees</text>
  <text x="260" y="145" font-family="Segoe UI, sans-serif" font-size="24" fill="#018ef5" font-weight="700">248</text>
  <rect x="420" y="80" width="160" height="90" rx="6" fill="#fff" stroke="#e3e8ee"/>
  <text x="440" y="110" font-family="Segoe UI, sans-serif" font-size="11" fill="#697386">Departments</text>
  <text x="440" y="145" font-family="Segoe UI, sans-serif" font-size="24" fill="#018ef5" font-weight="700">12</text>
  <rect x="600" y="80" width="160" height="90" rx="6" fill="#fff" stroke="#e3e8ee"/>
  <text x="620" y="110" font-family="Segoe UI, sans-serif" font-size="11" fill="#697386">On Leave Today</text>
  <text x="620" y="145" font-family="Segoe UI, sans-serif" font-size="24" fill="#018ef5" font-weight="700">8</text>
  <rect x="240" y="190" width="340" height="200" rx="6" fill="#fff" stroke="#e3e8ee"/>
  <text x="260" y="220" font-family="Segoe UI, sans-serif" font-size="12" fill="#1a1f36" font-weight="600">Pending Leave Applications</text>
  <rect x="260" y="240" width="300" height="24" rx="3" fill="#f4f6f8"/>
  <rect x="260" y="275" width="300" height="24" rx="3" fill="#f4f6f8"/>
  <rect x="600" y="190" width="340" height="200" rx="6" fill="#fff" stroke="#e3e8ee"/>
  <text x="620" y="220" font-family="Segoe UI, sans-serif" font-size="12" fill="#1a1f36" font-weight="600">Notices &amp; Shortcuts</text>
</svg>
